<svg width="16" height="16" viewBox="0 0 16 16" fill="none" xmlns="http://www.w3.org/2000/svg">
<path fill-rule="evenodd" clip-rule="evenodd" d="M2.25 0C1.00736 0 0 1.00736 0 2.25V13.75C0 14.9926 1.00736 16 2.25 16H13.75C14.9926 16 16 14.9926 16 13.75V2.25C16 1.00736 14.9926 0 13.75 0H2.25ZM6.28033 6.28033C6.57322 5.98744 6.57322 5.51256 6.28033 5.21967C5.98744 4.92678 5.51256 4.92678 5.21967 5.21967L2.96967 7.46967C2.67678 7.76256 2.67678 8.23744 2.96967 8.53033L5.21967 10.7803C5.51256 11.0732 5.98744 11.0732 6.28033 10.7803C6.57322 10.4874 6.57322 10.0126 6.28033 9.71967L4.56066 8L6.28033 6.28033ZM10.7803 5.21967C10.4874 4.92678 10.0126 4.92678 9.71967 5.21967C9.42678 5.51256 9.42678 5.98744 9.71967 6.28033L11.4393 8L9.71967 9.71967C9.42678 10.0126 9.42678 10.4874 9.71967 10.7803C10.0126 11.0732 10.4874 11.0732 10.7803 10.7803L13.0303 8.53033C13.3232 8.23744 13.3232 7.76256 13.0303 7.46967L10.7803 5.21967Z" fill="#00F6FF"/>
</svg>
